<svg width="512" height="512" viewBox="0 0 512 512" fill="none" xmlns="http://www.w3.org/2000/svg">
<path d="M6 106C6 78.3857 28.3857 56 56 56C83.6142 56 106 78.3858 106 106V406C106 433.614 83.6142 456 56 456C28.3857 456 6 433.614 6 406V106Z" fill="#005D5F"/>
<path d="M406 106C406 78.3857 428.386 56 456 56C483.614 56 506 78.3858 506 106V406C506 433.614 483.614 456 456 456C428.386 456 406 433.614 406 406V106Z" fill="#005D5F"/>
<path d="M20.6476 141.358C1.12138 121.832 1.12138 90.1738 20.6476 70.6476C40.1738 51.1214 71.832 51.1214 91.3582 70.6476L291.351 270.64C310.877 290.166 310.877 321.824 291.351 341.351C271.824 360.877 240.166 360.877 220.64 341.351L20.6476 141.358Z" fill="#005D5F"/>
<path d="M491.355 141.357C510.881 121.831 510.881 90.1717 491.355 70.645C471.828 51.1183 440.169 51.1183 420.642 70.645L220.645 270.642C201.118 290.169 201.118 321.828 220.645 341.355C240.172 360.882 271.831 360.882 291.357 341.355L491.355 141.357Z" fill="#005D5F"/>
</svg>
