<svg width="560" height="368" viewBox="0 0 560 368" fill="none" xmlns="http://www.w3.org/2000/svg">
<path d="M381.029 124.772C376.187 114.844 380.309 102.871 390.237 98.0286C400.165 93.1865 412.138 97.3093 416.98 107.237L487.12 251.044C491.962 260.972 487.839 272.945 477.911 277.787C467.984 282.63 456.01 278.507 451.168 268.579L381.029 124.772Z" fill="url(#paint0_linear)"/>
<path d="M521.242 107.237C526.084 97.3093 538.058 93.1865 547.986 98.0286C557.913 102.871 562.036 114.844 557.194 124.772L487.055 268.579C482.213 278.507 470.239 282.63 460.311 277.787C450.384 272.945 446.261 260.972 451.103 251.044L521.242 107.237Z" fill="#005D5F"/>
<path d="M160 20C160 8.95431 168.954 0 180 0C191.046 0 200 8.95431 200 20V200H160V20Z" fill="url(#paint1_linear)"/>
<path d="M0 20C0 8.95431 8.95431 0 20 0C31.0457 0 40 8.95431 40 20V140C40 151.046 31.0457 160 20 160C8.95431 160 0 151.046 0 140V20Z" fill="#005D5F"/>
<path d="M5.85982 34.1436C-1.95067 26.3331 -1.95067 13.6698 5.85982 5.85933C13.6703 -1.95116 26.3336 -1.95116 34.1441 5.85933L114.141 85.8563C121.952 93.6668 121.952 106.33 114.141 114.141C106.331 121.951 93.6673 121.951 85.8568 114.141L5.85982 34.1436Z" fill="#005D5F"/>
<path d="M194.142 34.143C201.953 26.3323 201.953 13.6687 194.142 5.85801C186.331 -1.95267 173.668 -1.95267 165.857 5.85801L85.858 85.857C78.0473 93.6677 78.0473 106.331 85.858 114.142C93.6687 121.953 106.332 121.953 114.143 114.142L194.142 34.143Z" fill="#005D5F"/>
<path fill-rule="evenodd" clip-rule="evenodd" d="M344 220C388.183 220 424 184.183 424 140C424 95.8172 388.183 60 344 60C299.817 60 264 95.8172 264 140C264 184.183 299.817 220 344 220ZM344 180C366.091 180 384 162.091 384 140C384 117.909 366.091 100 344 100C321.909 100 304 117.909 304 140C304 162.091 321.909 180 344 180Z" fill="url(#paint2_linear)"/>
<path fill-rule="evenodd" clip-rule="evenodd" d="M240 280C284.183 280 320 244.183 320 200C320 155.817 284.183 120 240 120C195.817 120 160 155.817 160 200C160 244.183 195.817 280 240 280ZM240 240C262.091 240 280 222.091 280 200C280 177.909 262.091 160 240 160C217.909 160 200 177.909 200 200C200 222.091 217.909 240 240 240Z" fill="#005D5F"/>
<path d="M165 356.766V321.021H170.409V336.34L184.491 321.021H191.175L177.96 335.268L191.481 356.766H184.899L174.082 339.404L170.409 343.387V356.766H165Z" fill="#293330"/>
<path d="M203.131 326.638C202.111 326.638 201.261 326.332 200.58 325.719C199.934 325.072 199.611 324.272 199.611 323.319C199.611 322.366 199.934 321.583 200.58 320.97C201.261 320.323 202.111 320 203.131 320C204.152 320 204.985 320.323 205.632 320.97C206.312 321.583 206.652 322.366 206.652 323.319C206.652 324.272 206.312 325.072 205.632 325.719C204.985 326.332 204.152 326.638 203.131 326.638ZM200.427 356.766V331.438H205.836V356.766H200.427Z" fill="#293330"/>
<path d="M217.057 356.766V331.438H221.853L222.262 335.881C223.044 334.315 224.184 333.089 225.68 332.204C227.211 331.285 228.963 330.826 230.936 330.826C233.997 330.826 236.395 331.779 238.13 333.685C239.899 335.591 240.783 338.434 240.783 342.213V356.766H235.426V342.774C235.426 337.872 233.419 335.421 229.405 335.421C227.398 335.421 225.731 336.136 224.405 337.566C223.112 338.996 222.466 341.038 222.466 343.694V356.766H217.057Z" fill="#293330"/>
<path d="M263.073 357.379C260.589 357.379 258.378 356.834 256.439 355.745C254.535 354.621 253.038 353.072 251.949 351.098C250.861 349.123 250.317 346.826 250.317 344.204C250.317 341.549 250.844 339.217 251.898 337.209C252.987 335.2 254.484 333.634 256.388 332.511C258.327 331.387 260.572 330.826 263.124 330.826C265.607 330.826 267.767 331.387 269.604 332.511C271.44 333.6 272.869 335.064 273.89 336.902C274.91 338.74 275.42 340.766 275.42 342.979C275.42 343.319 275.403 343.694 275.369 344.102C275.369 344.477 275.352 344.902 275.318 345.379H255.623C255.793 347.83 256.593 349.702 258.021 350.996C259.484 352.255 261.168 352.885 263.073 352.885C264.603 352.885 265.879 352.545 266.899 351.864C267.954 351.149 268.736 350.196 269.246 349.004H274.655C273.975 351.387 272.614 353.379 270.573 354.979C268.566 356.579 266.066 357.379 263.073 357.379ZM263.073 335.268C261.27 335.268 259.671 335.813 258.276 336.902C256.882 337.957 256.031 339.557 255.725 341.702H270.012C269.91 339.728 269.212 338.162 267.92 337.004C266.627 335.847 265.011 335.268 263.073 335.268Z" fill="#293330"/>
<path d="M295.217 357.379C292.019 357.379 289.383 356.596 287.308 355.03C285.233 353.464 284.042 351.387 283.736 348.8H289.196C289.468 349.957 290.114 350.962 291.135 351.813C292.155 352.63 293.499 353.038 295.166 353.038C296.798 353.038 297.989 352.698 298.737 352.017C299.486 351.336 299.86 350.553 299.86 349.668C299.86 348.374 299.333 347.506 298.278 347.064C297.258 346.587 295.829 346.162 293.992 345.787C292.563 345.481 291.135 345.072 289.706 344.562C288.311 344.051 287.138 343.336 286.185 342.417C285.267 341.464 284.808 340.187 284.808 338.587C284.808 336.374 285.658 334.536 287.359 333.072C289.06 331.574 291.441 330.826 294.502 330.826C297.326 330.826 299.605 331.506 301.339 332.868C303.108 334.23 304.146 336.153 304.452 338.638H299.248C299.077 337.549 298.567 336.698 297.717 336.085C296.9 335.472 295.795 335.166 294.4 335.166C293.04 335.166 291.985 335.455 291.237 336.034C290.488 336.579 290.114 337.294 290.114 338.179C290.114 339.064 290.625 339.762 291.645 340.272C292.699 340.783 294.077 341.243 295.778 341.651C297.479 342.026 299.043 342.468 300.472 342.979C301.935 343.455 303.108 344.17 303.993 345.123C304.877 346.077 305.319 347.472 305.319 349.311C305.353 351.626 304.452 353.549 302.615 355.081C300.812 356.613 298.346 357.379 295.217 357.379Z" fill="#293330"/>
<path d="M318.367 326.638C317.347 326.638 316.496 326.332 315.816 325.719C315.17 325.072 314.846 324.272 314.846 323.319C314.846 322.366 315.17 321.583 315.816 320.97C316.496 320.323 317.347 320 318.367 320C319.387 320 320.221 320.323 320.867 320.97C321.548 321.583 321.888 322.366 321.888 323.319C321.888 324.272 321.548 325.072 320.867 325.719C320.221 326.332 319.387 326.638 318.367 326.638ZM315.663 356.766V331.438H321.071V356.766H315.663Z" fill="#293330"/>
<path d="M342.906 356.766C340.423 356.766 338.45 356.17 336.987 354.979C335.524 353.753 334.793 351.591 334.793 348.494V335.983H330.456V331.438H334.793L335.456 325.004H340.202V331.438H347.345V335.983H340.202V348.494C340.202 349.889 340.491 350.86 341.069 351.404C341.681 351.915 342.719 352.17 344.181 352.17H347.09V356.766H342.906Z" fill="#293330"/>
<path d="M357.003 356.766V320H362.412V335.523C363.262 334.06 364.436 332.919 365.933 332.102C367.463 331.251 369.147 330.826 370.984 330.826C374.011 330.826 376.392 331.779 378.127 333.685C379.862 335.591 380.729 338.434 380.729 342.213V356.766H375.372V342.774C375.372 337.872 373.416 335.421 369.504 335.421C367.463 335.421 365.763 336.136 364.402 337.566C363.075 338.996 362.412 341.038 362.412 343.694V356.766H357.003Z" fill="#293330"/>
<path d="M403.019 357.379C400.536 357.379 398.325 356.834 396.386 355.745C394.481 354.621 392.984 353.072 391.896 351.098C390.807 349.123 390.263 346.826 390.263 344.204C390.263 341.549 390.79 339.217 391.845 337.209C392.933 335.2 394.43 333.634 396.335 332.511C398.274 331.387 400.519 330.826 403.07 330.826C405.553 330.826 407.713 331.387 409.55 332.511C411.387 333.6 412.815 335.064 413.836 336.902C414.856 338.74 415.367 340.766 415.367 342.979C415.367 343.319 415.35 343.694 415.315 344.102C415.315 344.477 415.298 344.902 415.264 345.379H395.569C395.739 347.83 396.539 349.702 397.967 350.996C399.43 352.255 401.114 352.885 403.019 352.885C404.55 352.885 405.825 352.545 406.846 351.864C407.9 351.149 408.682 350.196 409.193 349.004H414.601C413.921 351.387 412.56 353.379 410.519 354.979C408.512 356.579 406.012 357.379 403.019 357.379ZM403.019 335.268C401.216 335.268 399.617 335.813 398.223 336.902C396.828 337.957 395.978 339.557 395.671 341.702H409.958C409.856 339.728 409.159 338.162 407.866 337.004C406.573 335.847 404.958 335.268 403.019 335.268Z" fill="#293330"/>
<path d="M425.06 356.766V331.438H429.907L430.367 336.238C431.251 334.57 432.476 333.26 434.04 332.306C435.639 331.319 437.561 330.826 439.806 330.826V336.494H438.326C436.83 336.494 435.486 336.749 434.295 337.26C433.139 337.736 432.203 338.57 431.489 339.762C430.809 340.919 430.469 342.536 430.469 344.613V356.766H425.06Z" fill="#293330"/>
<path d="M457.097 357.379C454.954 357.379 453.185 357.021 451.791 356.306C450.396 355.591 449.358 354.655 448.678 353.498C447.998 352.306 447.658 351.013 447.658 349.617C447.658 347.166 448.61 345.226 450.515 343.796C452.42 342.366 455.141 341.651 458.679 341.651H465.312V341.191C465.312 339.217 464.768 337.736 463.679 336.749C462.625 335.762 461.247 335.268 459.546 335.268C458.049 335.268 456.74 335.643 455.617 336.391C454.529 337.106 453.866 338.179 453.627 339.609H448.219C448.389 337.77 449.001 336.204 450.056 334.911C451.144 333.583 452.505 332.579 454.138 331.898C455.804 331.183 457.624 330.826 459.597 330.826C463.135 330.826 465.873 331.762 467.812 333.634C469.751 335.472 470.72 337.991 470.72 341.191V356.766H466.026L465.567 352.426C464.853 353.821 463.815 354.996 462.455 355.949C461.094 356.902 459.308 357.379 457.097 357.379ZM458.169 352.987C459.631 352.987 460.856 352.647 461.842 351.966C462.863 351.251 463.645 350.315 464.189 349.157C464.768 348 465.125 346.723 465.261 345.328H459.24C457.097 345.328 455.566 345.702 454.648 346.451C453.763 347.2 453.321 348.136 453.321 349.26C453.321 350.417 453.746 351.336 454.597 352.017C455.481 352.664 456.672 352.987 458.169 352.987Z" fill="#293330"/>
<path d="M481.108 368V331.438H485.956L486.517 335.37C487.333 334.179 488.456 333.123 489.885 332.204C491.313 331.285 493.15 330.826 495.395 330.826C497.844 330.826 500.004 331.404 501.875 332.562C503.746 333.719 505.209 335.302 506.263 337.311C507.352 339.319 507.896 341.6 507.896 344.153C507.896 346.706 507.352 348.987 506.263 350.996C505.209 352.97 503.746 354.536 501.875 355.694C500.004 356.817 497.827 357.379 495.344 357.379C493.371 357.379 491.619 356.987 490.089 356.204C488.592 355.421 487.401 354.315 486.517 352.885V368H481.108ZM494.426 352.681C496.739 352.681 498.644 351.898 500.14 350.332C501.637 348.732 502.385 346.655 502.385 344.102C502.385 342.434 502.045 340.953 501.365 339.66C500.685 338.366 499.749 337.362 498.559 336.647C497.368 335.898 495.99 335.523 494.426 335.523C492.113 335.523 490.208 336.323 488.711 337.923C487.248 339.523 486.517 341.583 486.517 344.102C486.517 346.655 487.248 348.732 488.711 350.332C490.208 351.898 492.113 352.681 494.426 352.681Z" fill="#293330"/>
<path d="M520.889 326.638C519.868 326.638 519.018 326.332 518.338 325.719C517.691 325.072 517.368 324.272 517.368 323.319C517.368 322.366 517.691 321.583 518.338 320.97C519.018 320.323 519.868 320 520.889 320C521.909 320 522.743 320.323 523.389 320.97C524.069 321.583 524.41 322.366 524.41 323.319C524.41 324.272 524.069 325.072 523.389 325.719C522.743 326.332 521.909 326.638 520.889 326.638ZM518.185 356.766V331.438H523.593V356.766H518.185Z" fill="#293330"/>
<path d="M546.652 357.379C544.169 357.379 541.958 356.834 540.019 355.745C538.114 354.621 536.618 353.072 535.529 351.098C534.441 349.123 533.896 346.826 533.896 344.204C533.896 341.549 534.424 339.217 535.478 337.209C536.567 335.2 538.063 333.634 539.968 332.511C541.907 331.387 544.152 330.826 546.703 330.826C549.186 330.826 551.346 331.387 553.183 332.511C555.02 333.6 556.449 335.064 557.469 336.902C558.49 338.74 559 340.766 559 342.979C559 343.319 558.983 343.694 558.949 344.102C558.949 344.477 558.932 344.902 558.898 345.379H539.203C539.373 347.83 540.172 349.702 541.601 350.996C543.064 352.255 544.747 352.885 546.652 352.885C548.183 352.885 549.459 352.545 550.479 351.864C551.534 351.149 552.316 350.196 552.826 349.004H558.235C557.554 351.387 556.194 353.379 554.153 354.979C552.146 356.579 549.646 357.379 546.652 357.379ZM546.652 335.268C544.849 335.268 543.251 335.813 541.856 336.902C540.461 337.957 539.611 339.557 539.305 341.702H553.591C553.489 339.728 552.792 338.162 551.499 337.004C550.207 335.847 548.591 335.268 546.652 335.268Z" fill="#293330"/>
<defs>
<linearGradient id="paint0_linear" x1="441" y1="199.5" x2="396.5" y2="116" gradientUnits="userSpaceOnUse">
<stop stop-color="#005D5F"/>
<stop offset="1" stop-color="#002829"/>
</linearGradient>
<linearGradient id="paint1_linear" x1="180" y1="71" x2="180" y2="200" gradientUnits="userSpaceOnUse">
<stop stop-color="#005D5F"/>
<stop offset="1" stop-color="#002829"/>
</linearGradient>
<linearGradient id="paint2_linear" x1="344" y1="140" x2="275.5" y2="180.5" gradientUnits="userSpaceOnUse">
<stop stop-color="#005D5F"/>
<stop offset="1" stop-color="#002829"/>
</linearGradient>
</defs>
</svg>
